<svg width="40" height="40" viewBox="0 0 40 40" fill="none" xmlns="http://www.w3.org/2000/svg">
<path d="M33.125 33.75H29.375C29.03 33.75 28.75 33.47 28.75 33.125C28.75 32.78 29.03 32.5 29.375 32.5H32.5V29.375C32.5 29.03 32.78 28.75 33.125 28.75C33.4688 28.75 33.75 29.03 33.75 29.375V33.125C33.75 33.47 33.4688 33.75 33.125 33.75ZM33.125 26.25C32.78 26.25 32.5 25.97 32.5 25.625V21.875C32.5 21.53 32.78 21.25 33.125 21.25C33.4688 21.25 33.75 21.53 33.75 21.875V25.625C33.75 25.97 33.4688 26.25 33.125 26.25ZM33.125 18.75C32.78 18.75 32.5 18.47 32.5 18.125V14.375C32.5 14.03 32.78 13.75 33.125 13.75C33.4688 13.75 33.75 14.03 33.75 14.375V18.125C33.75 18.47 33.4688 18.75 33.125 18.75ZM33.125 11.25C32.78 11.25 32.5 10.97 32.5 10.625V7.5H29.375C29.03 7.5 28.75 7.22 28.75 6.875C28.75 6.53 29.03 6.25 29.375 6.25H33.125C33.4688 6.25 33.75 6.53 33.75 6.875V10.625C33.75 10.97 33.4688 11.25 33.125 11.25ZM18.3325 26.3162C18.1025 26.5475 17.7287 26.5475 17.4975 26.3162L16.245 25.0637C16.2425 25.06 16.2437 25.055 16.2413 25.0525L12.2563 21.0375C12.025 20.8075 12.025 20.4338 12.2563 20.2025L13.5088 18.9488C13.74 18.7175 14.1138 18.7175 14.345 18.9488L17.92 22.55L25.4375 15.0338C25.6675 14.8025 26.0413 14.8025 26.2725 15.0338L27.525 16.2875C27.7575 16.5188 27.7575 16.8925 27.525 17.1237L18.3325 26.3162ZM25.625 7.5H21.875C21.53 7.5 21.25 7.22 21.25 6.875C21.25 6.53 21.53 6.25 21.875 6.25H25.625C25.9688 6.25 26.25 6.53 26.25 6.875C26.25 7.22 25.9688 7.5 25.625 7.5ZM18.125 7.5H14.375C14.03 7.5 13.75 7.22 13.75 6.875C13.75 6.53 14.03 6.25 14.375 6.25H18.125C18.4688 6.25 18.75 6.53 18.75 6.875C18.75 7.22 18.4688 7.5 18.125 7.5ZM10.625 33.75H6.875C6.53 33.75 6.25 33.47 6.25 33.125V29.375C6.25 29.03 6.53 28.75 6.875 28.75C7.22 28.75 7.5 29.03 7.5 29.375V32.5H10.625C10.97 32.5 11.25 32.78 11.25 33.125C11.25 33.47 10.97 33.75 10.625 33.75ZM10.625 7.5H7.5V10.625C7.5 10.97 7.22 11.25 6.875 11.25C6.53 11.25 6.25 10.97 6.25 10.625V6.875C6.25 6.53 6.53 6.25 6.875 6.25H10.625C10.97 6.25 11.25 6.53 11.25 6.875C11.25 7.22 10.97 7.5 10.625 7.5ZM6.875 13.75C7.22 13.75 7.5 14.03 7.5 14.375V18.125C7.5 18.47 7.22 18.75 6.875 18.75C6.53 18.75 6.25 18.47 6.25 18.125V14.375C6.25 14.03 6.53 13.75 6.875 13.75ZM6.875 21.25C7.22 21.25 7.5 21.53 7.5 21.875V25.625C7.5 25.97 7.22 26.25 6.875 26.25C6.53 26.25 6.25 25.97 6.25 25.625V21.875C6.25 21.53 6.53 21.25 6.875 21.25ZM14.375 32.5H18.125C18.4688 32.5 18.75 32.78 18.75 33.125C18.75 33.47 18.4688 33.75 18.125 33.75H14.375C14.03 33.75 13.75 33.47 13.75 33.125C13.75 32.78 14.03 32.5 14.375 32.5ZM21.875 32.5H25.625C25.9688 32.5 26.25 32.78 26.25 33.125C26.25 33.47 25.9688 33.75 25.625 33.75H21.875C21.53 33.75 21.25 33.47 21.25 33.125C21.25 32.78 21.53 32.5 21.875 32.5Z" fill="black"/>
</svg>
