<svg width="167" height="38" viewBox="0 0 167 38" fill="none" xmlns="http://www.w3.org/2000/svg">
<g clip-path="url(#clip0_1_14)">
<path d="M19.6535 14.1981C19.6535 14.1981 14.4787 9.71449 14.1483 9.54843C13.818 9.38237 8.94594 8.30298 8.94594 8.30298C8.94594 8.30298 7.12923 8.55207 7.12923 8.9949C7.12923 9.43772 13.3776 21.7815 13.3776 22.2797C13.6398 24.6363 14.0442 26.9746 14.5888 29.2819C14.864 29.531 16.956 32.0495 16.956 32.0495L18.1396 33.5164C19.9349 34.0596 21.8495 34.0596 23.6448 33.5164C25.9019 32.52 26.7002 26.6249 26.7002 26.6249C26.7002 26.6249 29.4528 17.5747 29.4528 17.3256C29.4528 17.0765 31.2695 10.185 31.2695 10.185L30.4437 6.08885C28.7378 6.93363 27.1235 7.95389 25.6267 9.13328C23.7221 10.922 21.7285 12.6125 19.6535 14.1981Z" fill="white"/>
<path d="M20.3417 38C15.3428 38.0815 10.5159 36.1664 6.91931 32.6747C3.32275 29.1829 1.25018 24.3996 1.15609 19.3736C1.20261 16.8778 1.73816 14.4157 2.7321 12.1283C3.72603 9.8408 5.15884 7.77287 6.94852 6.0428C8.7382 4.31273 10.8496 2.9545 13.162 2.04582C15.4743 1.13715 17.9421 0.695881 20.4243 0.747263C25.4352 0.650878 30.2792 2.55852 33.8921 6.05107C37.505 9.54362 39.5912 14.3354 39.6924 19.3736C39.5912 24.4119 37.505 29.2036 33.8921 32.6962C30.2792 36.1887 25.4352 38.0964 20.4243 38M20.4243 5.12017C18.5218 5.0761 16.6295 5.41025 14.8559 6.10343C13.0822 6.79662 11.4622 7.8352 10.0888 9.15955C8.71538 10.4839 7.61564 12.0679 6.85268 13.8208C6.08971 15.5736 5.67856 17.4606 5.64282 19.3736C5.71517 23.2226 7.3037 26.8855 10.0596 29.5578C12.8155 32.2302 16.5135 33.6938 20.3417 33.6271C24.1725 33.6938 27.8734 32.2312 30.6337 29.5595C33.3939 26.8879 34.9885 23.2251 35.0681 19.3736C34.9885 15.5221 33.3939 11.8594 30.6337 9.18772C27.8734 6.51609 24.1725 5.05342 20.3417 5.12017" fill="#52AC62"/>
<path d="M21.0574 9.52077C18.7244 8.02913 16.1949 6.8739 13.5428 6.08886C10.2397 5.09251 5.86303 4.42827 1.32124 3.51494C1.32124 3.51494 6.99159 7.2236 5.97313 18.488C5.06477 28.3685 10.3498 33.1012 19.9288 33.7101C19.9288 33.7101 13.0748 27.9811 13.8731 21.6985C14.286 18.5433 15.7724 17.2149 15.1943 15.3052C14.6163 13.3955 12.2215 11.5412 8.39541 9.13329C11.4979 10.3093 14.3137 12.1402 16.6532 14.5026C17.9417 12.6982 19.408 11.0291 21.0298 9.52077" fill="#52AC62"/>
<path d="M19.626 32.9352C19.626 32.9352 -0.412885 18.7094 35.1507 0.442825C33.8761 4.43775 33.6019 8.68725 34.3524 12.8143C36.1141 18.4603 38.5364 33.2119 21.6354 33.2119C21.6354 33.2119 17.1212 22.8886 29.5904 9.43773C29.5904 9.43773 17.4239 16.0248 19.626 33.0459" fill="#7BB85E"/>
<path d="M19.9013 33.5164C14.1759 32.9905 10.2947 31.3853 8.01005 28.6453C6.93651 27.2059 6.18 25.5533 5.79082 23.7972C5.40165 22.0411 5.38873 20.2218 5.75293 18.4603C7.12922 7.14057 1.26619 3.73635 1.21114 3.70867L0 3.01675L2.53239 3.51493C6.5787 4.34523 9.77172 4.95412 12.7996 5.89512C15.7345 6.83073 18.5884 8.0063 21.3326 9.41005L21.1124 9.79753C18.3958 8.38248 15.5585 7.21538 12.6344 6.31027C9.28081 5.35535 5.88167 4.57019 2.44981 3.95776H2.25713C3.88116 5.34159 7.29438 9.49308 6.19334 18.5433C5.82999 20.2349 5.82607 21.9845 6.18183 23.6777C6.5376 25.3708 7.24502 26.9693 8.25779 28.3685C10.4599 31.1362 14.2309 32.5754 19.8187 33.0736L19.9013 33.5164Z" fill="white"/>
<path d="M19.5434 33.378C17.7227 32.0301 16.2484 30.2646 15.243 28.2283C14.2376 26.1921 13.7302 23.9439 13.763 21.6708C14.3135 14.3918 21.4702 7.19592 34.958 0.24909L35.536 0L35.3709 0.498179C34.109 4.44795 33.8348 8.64956 34.5726 12.7312C35.536 15.8587 37.3252 23.8019 33.4716 28.7283C31.1319 31.7728 27.1131 33.2119 21.4978 33.2119V32.7691C27.003 32.7691 30.8566 31.3023 33.1137 28.3685C36.8848 23.4421 35.0956 15.8034 34.1322 12.7589C33.371 8.80723 33.598 4.72731 34.7928 0.885652C21.7455 7.66642 14.8365 14.6686 14.286 21.6985C14.2602 23.8905 14.7447 26.0582 15.7005 28.0284C16.6564 29.9987 18.0572 31.7169 19.7912 33.0459L19.5434 33.378Z" fill="white"/>
<path d="M46.7941 29.3095V27.2615H47.6199C48.0878 27.2615 48.3356 26.957 48.3356 26.5419V14.807H46.9318V12.5929H53.7582C55.8488 12.4702 57.904 13.1756 59.4836 14.5579C60.2031 15.3332 60.7555 16.2498 61.106 17.2499C61.4566 18.2501 61.5977 19.3124 61.5205 20.37C61.5505 21.7781 61.3458 23.1813 60.9149 24.5215C60.5648 25.5635 59.9808 26.5104 59.2083 27.2891C57.7586 28.6372 55.8423 29.3622 53.8683 29.3095H46.7941ZM51.391 15.0284V26.9017H53.9234C54.5644 26.9316 55.2029 26.8035 55.7834 26.5286C56.3639 26.2536 56.8688 25.8401 57.254 25.3241C58.1555 24.0022 58.5826 22.4112 58.4651 20.8128C58.4651 16.9658 56.8411 15.0284 53.593 15.0284H51.391ZM76.8525 27.3168V29.3095H72.6685V27.6766C72.2127 28.3179 71.6022 28.8322 70.8944 29.1711C70.1866 29.51 69.4047 29.6624 68.6222 29.614C66.0623 29.614 64.7686 28.1748 64.7686 25.2964V19.3736C64.7686 18.9031 64.5759 18.6817 64.1355 18.654H63.3097V16.606H67.6863V24.6322C67.6521 25.327 67.7843 26.0198 68.0717 26.6526C68.2421 26.8962 68.4765 27.0873 68.7487 27.2046C69.0209 27.3219 69.3202 27.3608 69.6132 27.3168C69.9709 27.3412 70.3297 27.2897 70.6663 27.1657C71.003 27.0418 71.31 26.8481 71.5675 26.5972C72.001 26.1422 72.2469 25.539 72.2556 24.909V19.5397C72.27 19.3364 72.2219 19.1335 72.118 18.9585C72.046 18.8876 71.9593 18.8335 71.8642 18.8001C71.769 18.7666 71.6678 18.7545 71.5675 18.7647H70.7692V16.606H75.1734V26.5142C75.1734 26.791 75.1734 26.957 75.1734 27.0401C75.2391 27.1038 75.3167 27.1537 75.4018 27.187C75.4868 27.2202 75.5776 27.2361 75.6689 27.2338L76.8525 27.3168ZM78.0086 22.9716C77.9883 21.867 78.1751 20.7685 78.5591 19.7334C78.795 18.9428 79.2314 18.2275 79.8253 17.6577C80.9453 16.7646 82.332 16.2771 83.7615 16.2738C84.6317 16.2515 85.4962 16.4216 86.2939 16.772C86.8916 17.0471 87.433 17.432 87.8904 17.9068C88.3554 18.4463 88.7024 19.078 88.9088 19.7611C89.1888 20.6564 89.3281 21.5902 89.3217 22.5288C89.4533 24.4332 88.8522 26.3158 87.6427 27.7873C87.1014 28.3755 86.4396 28.8385 85.7029 29.1443C84.9663 29.4501 84.1724 29.5915 83.3761 29.5586C82.6147 29.6019 81.8533 29.4727 81.1482 29.1805C80.4431 28.8883 79.8123 28.4405 79.3023 27.8703C78.214 26.4396 77.6852 24.6573 77.8159 22.8609M82.1375 26.957C82.5492 27.2428 83.0412 27.3883 83.5413 27.3722C85.358 27.3722 86.2939 25.8776 86.2939 22.9439C86.3616 21.777 86.1541 20.6106 85.6883 19.5397C85.4972 19.1684 85.203 18.861 84.8414 18.6546C84.4798 18.4483 84.0664 18.3519 83.6514 18.3773C83.2318 18.3534 82.8135 18.4436 82.4406 18.6384C82.0676 18.8332 81.7537 19.1254 81.5319 19.4843C81.0476 20.4125 80.8195 21.4542 80.8713 22.5011C80.8713 24.8813 81.2842 26.3481 82.165 26.957M91.2486 18.654V16.606H95.46V18.2389C95.9012 17.6172 96.4872 17.1135 97.1666 16.772C97.8922 16.4044 98.6939 16.2148 99.5063 16.2185C100.042 16.1918 100.578 16.2763 101.08 16.4668C101.582 16.6572 102.039 16.9496 102.424 17.3256C103.172 18.2403 103.537 19.4112 103.443 20.5914V27.2061H104.874V29.2265H99.0935V27.3998H99.8917C100.094 27.388 100.287 27.3103 100.442 27.1784C100.519 27.0987 100.576 27.0023 100.609 26.8967C100.643 26.7911 100.652 26.6791 100.635 26.5695V21.311C100.634 20.6263 100.444 19.9554 100.084 19.3736C99.8992 19.1323 99.6544 18.9439 99.3743 18.8274C99.0941 18.7108 98.7885 18.6701 98.4879 18.7094C98.1468 18.6791 97.8032 18.7228 97.4803 18.8373C97.1574 18.9519 96.8627 19.1348 96.6161 19.3736C96.1511 19.855 95.8939 20.5016 95.9004 21.1726V27.2061H97.3318V29.2265H91.3862V27.3998H92.212C92.4145 27.388 92.6077 27.3103 92.7625 27.1784C92.8951 27.0052 92.9544 26.7865 92.9276 26.5695V19.5397C92.9276 19.0138 92.735 18.7647 92.3221 18.7371L91.2486 18.654ZM113.269 16.2462C114.787 16.2724 116.288 16.5724 117.701 17.1318V26.5142C117.685 26.7089 117.733 26.9035 117.839 27.0677C117.904 27.1308 117.982 27.1785 118.068 27.2072C118.153 27.236 118.244 27.245 118.334 27.2338H119.132V29.2542H115.279V27.7873C114.915 28.3601 114.409 28.8273 113.81 29.1429C113.211 29.4584 112.541 29.6112 111.865 29.5863C111.152 29.645 110.435 29.5268 109.778 29.2421C109.12 28.9574 108.542 28.5149 108.094 27.9534C107.2 26.6557 106.747 25.1027 106.801 23.5251C106.686 21.6018 107.274 19.7026 108.452 18.1835C109.082 17.5182 109.85 17.0018 110.702 16.6715C111.554 16.3412 112.469 16.2054 113.379 16.2738M114.921 25.2964V18.7924C114.31 18.5432 113.653 18.4299 112.994 18.4603C112.507 18.4506 112.026 18.5711 111.601 18.8093C111.175 19.0476 110.82 19.3951 110.572 19.8165C110.03 20.9349 109.775 22.1716 109.829 23.4144C109.829 26.1821 110.709 27.4829 112.581 27.4829C113.241 27.5044 113.883 27.266 114.37 26.8186C114.586 26.629 114.76 26.395 114.878 26.1325C114.997 25.8699 115.059 25.5848 115.059 25.2964M123.069 14.0044H124.693V16.606H127.996L127.748 18.7094H124.555V25.3795C124.506 25.925 124.642 26.471 124.94 26.9293C125.104 27.0873 125.299 27.2085 125.512 27.2849C125.726 27.3613 125.953 27.391 126.179 27.3722C126.778 27.3695 127.363 27.1863 127.858 26.8463L128.629 28.7837C127.685 29.3863 126.581 29.6855 125.463 29.6417C124.819 29.6655 124.175 29.5717 123.564 29.3649C123.144 29.2248 122.752 29.0091 122.408 28.7283C122.135 28.4397 121.936 28.088 121.83 27.7043C121.725 27.3518 121.651 26.9906 121.61 26.6249C121.61 26.3758 121.61 25.9883 121.61 25.4902V18.7647H119.848L120.096 16.9381C120.431 16.9349 120.763 16.859 121.066 16.7158C121.37 16.5725 121.64 16.3652 121.857 16.1078C122.335 15.471 122.707 14.7606 122.958 14.0044M142.805 27.3168V29.3095H138.731V27.6766C138.275 28.3179 137.664 28.8322 136.957 29.1711C136.249 29.51 135.467 29.6624 134.685 29.614C132.125 29.614 130.831 28.1748 130.831 25.2964V19.3736C130.848 19.2826 130.844 19.1888 130.819 19.0995C130.795 19.0102 130.75 18.9277 130.689 18.8583C130.628 18.7889 130.552 18.7344 130.467 18.699C130.382 18.6636 130.29 18.6482 130.198 18.654H129.372V16.606H133.776V24.6322C133.735 25.3246 133.858 26.0169 134.134 26.6526C134.307 26.8938 134.541 27.0832 134.813 27.2002C135.084 27.3173 135.383 27.3576 135.675 27.3168C136.033 27.3394 136.391 27.2872 136.728 27.1633C137.064 27.0394 137.371 26.8467 137.63 26.5972C138.063 26.1422 138.309 25.539 138.318 24.909V19.5397C138.34 19.3317 138.281 19.1232 138.153 18.9585C138.084 18.8913 138.002 18.8394 137.912 18.806C137.822 18.7726 137.726 18.7586 137.63 18.7647H136.832V16.606H141.208V26.5142C141.145 26.6837 141.145 26.8706 141.208 27.0401C141.274 27.1038 141.351 27.1537 141.437 27.187C141.522 27.2202 141.612 27.2361 141.704 27.2338L142.805 27.3168ZM146.328 26.4865V19.5397C146.398 19.3523 146.398 19.1459 146.328 18.9585C146.202 18.8365 146.035 18.7672 145.86 18.7647H144.787V16.606H149.026V18.5433C149.316 17.8833 149.795 17.3247 150.402 16.9381C151.049 16.4916 151.819 16.2594 152.604 16.2738C153.415 16.2828 154.214 16.4718 154.944 16.8274V20.5914L152.631 20.7575V19.595C152.631 19.2629 152.631 19.0692 152.384 18.9862C152.166 18.8926 151.932 18.8455 151.696 18.8478C151.389 18.8407 151.085 18.9015 150.804 19.0258C150.523 19.1502 150.273 19.3351 150.072 19.5674C149.649 20.0799 149.424 20.7284 149.438 21.394V27.2061H151.613V29.1988H144.759V27.3998H145.585C145.787 27.388 145.981 27.3103 146.135 27.1784C146.268 27.0052 146.327 26.7865 146.3 26.5695M162.816 16.3569C163.886 16.3106 164.938 16.6436 165.789 17.2979C166.154 17.6153 166.443 18.0119 166.633 18.4577C166.824 18.9035 166.912 19.387 166.89 19.8718C166.903 20.5509 166.732 21.2207 166.394 21.8092C166.116 22.3355 165.72 22.7902 165.238 23.1376C164.709 23.4771 164.135 23.7381 163.532 23.9126C162.305 24.261 161.035 24.4288 159.761 24.4108C159.779 25.2048 160.071 25.9677 160.586 26.5695C160.896 26.8563 161.261 27.0755 161.659 27.2137C162.057 27.3518 162.479 27.4057 162.899 27.3722C164.018 27.3444 165.098 26.9563 165.982 26.2651L166.917 28.3132C166.415 28.7136 165.847 29.0227 165.238 29.2265C164.363 29.5716 163.426 29.7317 162.486 29.697C161.664 29.7694 160.837 29.6553 160.065 29.3631C159.293 29.0709 158.597 28.608 158.027 28.0087C157.018 26.6774 156.511 25.0303 156.595 23.3591C156.54 21.5585 157.115 19.7955 158.219 18.3773C158.766 17.7063 159.462 17.1738 160.251 16.8229C161.04 16.4719 161.899 16.3123 162.761 16.3569M159.651 22.1413C160.356 22.1928 161.064 22.1928 161.77 22.1413C162.374 22.0244 162.947 21.779 163.449 21.4217C163.68 21.2784 163.872 21.0792 164.006 20.8423C164.141 20.6054 164.214 20.3383 164.22 20.0655C164.252 19.8607 164.236 19.6512 164.173 19.4538C164.11 19.2564 164.002 19.0765 163.857 18.9285C163.713 18.7806 163.536 18.6687 163.341 18.6018C163.146 18.5349 162.938 18.5149 162.733 18.5433C162.311 18.5231 161.89 18.6147 161.513 18.8089C161.136 19.0032 160.817 19.2933 160.586 19.6504C160.066 20.3856 159.744 21.2437 159.651 22.1413Z" fill="white"/>
</g>
<defs>
<clipPath id="clip0_1_14">
<rect width="167" height="38" fill="white"/>
</clipPath>
</defs>
</svg>
