<svg width="417" height="118" viewBox="0 0 417 118" fill="none" xmlns="http://www.w3.org/2000/svg">
<g filter="url(#filter0_d_1_162)">
<path d="M4.03655 21.2724H37.827V36.6274H23.9886V51.1767H36.3105V65.7734H23.9886V98H4.03655V21.2724ZM88.2995 66.2C88.2995 73.9091 88.11 79.3749 87.7308 82.5976C87.3833 85.7887 86.2459 88.7112 84.3186 91.3651C82.4229 94.0191 79.8479 96.0569 76.5937 97.4787C73.3394 98.9004 69.5481 99.6113 65.2196 99.6113C61.1123 99.6113 57.4157 98.9478 54.1299 97.6209C50.8756 96.2623 48.2533 94.2402 46.2628 91.5547C44.2724 88.8691 43.0876 85.9466 42.7084 82.7872C42.3293 79.6277 42.1397 74.0986 42.1397 66.2V53.0724C42.1397 45.3633 42.3135 39.9132 42.661 36.7221C43.0402 33.4995 44.1776 30.5612 46.0732 27.9072C48.0005 25.2533 50.5913 23.2154 53.8455 21.7937C57.0998 20.3719 60.8911 19.661 65.2196 19.661C69.3269 19.661 73.0077 20.3403 76.262 21.6989C79.5478 23.0259 82.186 25.0321 84.1764 27.7177C86.1669 30.4032 87.3517 33.3257 87.7308 36.4852C88.11 39.6447 88.2995 45.1737 88.2995 53.0724V66.2ZM68.3475 40.9874C68.3475 37.4172 68.1421 35.1424 67.7314 34.163C67.3523 33.1519 66.5466 32.6464 65.3144 32.6464C64.2718 32.6464 63.4661 33.0572 62.8974 33.8786C62.3603 34.6685 62.0917 37.0381 62.0917 40.9874V76.8158C62.0917 81.2706 62.2655 84.0194 62.6131 85.062C62.9922 86.1046 63.8452 86.6259 65.1722 86.6259C66.5308 86.6259 67.3996 86.0256 67.7788 84.825C68.1579 83.6244 68.3475 80.7651 68.3475 76.2471V40.9874ZM95.7875 21.2724H109.91C119.325 21.2724 125.692 21.6357 129.009 22.3624C132.358 23.089 135.075 24.9531 137.161 27.9546C139.278 30.9245 140.336 35.6795 140.336 42.2196C140.336 48.191 139.593 52.2035 138.109 54.2572C136.624 56.3108 133.701 57.543 129.341 57.9538C133.29 58.9332 135.944 60.2444 137.303 61.8873C138.661 63.5302 139.499 65.0468 139.815 66.4369C140.162 67.7955 140.336 71.5711 140.336 77.7636V98H121.806V72.5031C121.806 68.3958 121.474 65.8524 120.81 64.873C120.179 63.8936 118.488 63.4038 115.739 63.4038V98H95.7875V21.2724ZM115.739 34.3999V51.4611C117.983 51.4611 119.547 51.1609 120.431 50.5606C121.348 49.9287 121.806 47.9225 121.806 44.5418V40.3239C121.806 37.8911 121.363 36.2956 120.479 35.5373C119.626 34.7791 118.046 34.3999 115.739 34.3999ZM188.297 21.2724V36.6274H176.449V98H156.497V36.6274H144.696V21.2724H188.297ZM238.2 21.2724V72.5505C238.2 78.3639 238.011 82.4554 237.632 84.825C237.253 87.163 236.131 89.58 234.267 92.076C232.403 94.5404 229.938 96.4203 226.874 97.7156C223.841 98.9794 220.255 99.6113 216.116 99.6113C211.535 99.6113 207.49 98.8531 203.983 97.3365C200.476 95.82 197.854 93.8453 196.116 91.4125C194.379 88.9797 193.352 86.4206 193.036 83.735C192.72 81.0179 192.562 75.3308 192.562 66.6739V21.2724H212.514V78.8062C212.514 82.1553 212.688 84.3037 213.035 85.2516C213.414 86.1678 214.157 86.6259 215.263 86.6259C216.526 86.6259 217.332 86.1204 217.68 85.1094C218.059 84.0668 218.248 81.634 218.248 77.811V21.2724H238.2Z" fill="url(#paint0_linear_1_162)"/>
<path d="M252.061 21.2724H285.852V36.6274H272.014V51.1767H284.335V65.7734H272.014V98H252.061V21.2724ZM310.685 21.2724V82.645H322.818V98H290.733V21.2724H310.685ZM327.699 21.2724H360.968V36.6274H347.651V51.1767H360.115V65.7734H347.651V82.645H362.295V98H327.699V21.2724ZM408.502 21.2724L401.536 55.205L412.057 98H393.574C391.362 90.3541 389.34 81.0495 387.508 70.0861C387.002 74.9201 386.307 80.0542 385.423 85.4885L383.527 98H364.096L371.3 55.205L364.096 21.2724H383.385C383.732 23.3892 384.427 26.912 385.47 31.8408C386.291 35.6005 386.971 39.0444 387.508 42.1722L391.773 21.2724H408.502Z" fill="white"/>
</g>
<defs>
<filter id="filter0_d_1_162" x="0.0365448" y="19.6611" width="416.02" height="87.9502" filterUnits="userSpaceOnUse" color-interpolation-filters="sRGB">
<feFlood flood-opacity="0" result="BackgroundImageFix"/>
<feColorMatrix in="SourceAlpha" type="matrix" values="0 0 0 0 0 0 0 0 0 0 0 0 0 0 0 0 0 0 127 0" result="hardAlpha"/>
<feOffset dy="4"/>
<feGaussianBlur stdDeviation="2"/>
<feColorMatrix type="matrix" values="0 0 0 0 0 0 0 0 0 0 0 0 0 0 0 0 0 0 0.25 0"/>
<feBlend mode="normal" in2="BackgroundImageFix" result="effect1_dropShadow_1_162"/>
<feBlend mode="normal" in="SourceGraphic" in2="effect1_dropShadow_1_162" result="shape"/>
</filter>
<linearGradient id="paint0_linear_1_162" x1="121" y1="0" x2="121" y2="118" gradientUnits="userSpaceOnUse">
<stop stop-color="#EB0B05"/>
<stop offset="1" stop-color="#E1937C"/>
</linearGradient>
</defs>
</svg>
