<svg width="171" height="38" viewBox="0 0 171 38" fill="none" xmlns="http://www.w3.org/2000/svg">
<g clip-path="url(#clip0_1_40)">
<path d="M20.1243 14.1981C20.1243 14.1981 14.8255 9.71449 14.4872 9.54843C14.149 9.38237 9.16022 8.30298 9.16022 8.30298C9.16022 8.30298 7.29999 8.55207 7.29999 8.9949C7.29999 9.43772 13.698 21.7815 13.698 22.2797C13.9665 24.6363 14.3806 26.9746 14.9382 29.2819C15.22 29.531 17.3621 32.0495 17.3621 32.0495L18.5741 33.5164C20.4124 34.0596 22.3729 34.0596 24.2111 33.5164C26.5223 32.52 27.3397 26.6249 27.3397 26.6249C27.3397 26.6249 30.1582 17.5747 30.1582 17.3256C30.1582 17.0765 32.0185 10.185 32.0185 10.185L31.1729 6.08885C29.4261 6.93363 27.7731 7.95389 26.2405 9.13328C24.2903 10.922 22.2489 12.6125 20.1243 14.1981Z" fill="white"/>
<path d="M20.8289 38C15.7103 38.0815 10.7677 36.1664 7.08504 32.6747C3.40233 29.1829 1.28012 24.3996 1.18378 19.3736C1.23141 16.8778 1.77979 14.4157 2.79754 12.1283C3.81528 9.8408 5.2824 7.77287 7.11495 6.0428C8.9475 4.31273 11.1095 2.9545 13.4772 2.04582C15.8449 1.13715 18.3719 0.695881 20.9135 0.747263C26.0444 0.650878 31.0045 2.55852 34.7039 6.05107C38.4033 9.54362 40.5395 14.3354 40.6431 19.3736C40.5395 24.4119 38.4033 29.2036 34.7039 32.6962C31.0045 36.1887 26.0444 38.0964 20.9135 38M20.9135 5.12017C18.9655 5.0761 17.0278 5.41025 15.2117 6.10343C13.3956 6.79662 11.7367 7.8352 10.3304 9.15955C8.92413 10.4839 7.79804 12.0679 7.01681 13.8208C6.23557 15.5736 5.81457 17.4606 5.77798 19.3736C5.85206 23.2226 7.47863 26.8855 10.3006 29.5578C13.1225 32.2302 16.9091 33.6938 20.8289 33.6271C24.7514 33.6938 28.541 32.2312 31.3674 29.5595C34.1938 26.8879 35.8266 23.2251 35.908 19.3736C35.8266 15.5221 34.1938 11.8594 31.3674 9.18772C28.541 6.51609 24.7514 5.05342 20.8289 5.12017" fill="#52AC62"/>
<path d="M21.5617 9.52077C19.1729 8.02913 16.5828 6.8739 13.8671 6.08886C10.4849 5.09251 6.00346 4.42827 1.35289 3.51494C1.35289 3.51494 7.15905 7.2236 6.1162 18.488C5.18609 28.3685 10.5977 33.1012 20.4061 33.7101C20.4061 33.7101 13.388 27.9811 14.2054 21.6985C14.6281 18.5433 16.1502 17.2149 15.5583 15.3052C14.9664 13.3955 12.5143 11.5412 8.5965 9.13329C11.7733 10.3093 14.6566 12.1402 17.0521 14.5026C18.3714 12.6982 19.8729 11.0291 21.5335 9.52077" fill="#52AC62"/>
<path d="M20.0961 32.9352C20.0961 32.9352 -0.422772 18.7094 35.9926 0.442825C34.6875 4.43775 34.4067 8.68725 35.1752 12.8143C36.9791 18.4603 39.4594 33.2119 22.1536 33.2119C22.1536 33.2119 17.5312 22.8886 30.2992 9.43773C30.2992 9.43773 17.8413 16.0248 20.0961 33.0459" fill="#7BB85E"/>
<path d="M20.3779 33.5164C14.5154 32.9905 10.5413 31.3853 8.20191 28.6453C7.10265 27.2059 6.32802 25.5533 5.92953 23.7972C5.53103 22.0411 5.5178 20.2218 5.89072 18.4603C7.29998 7.14057 1.29652 3.73635 1.24015 3.70867L0 3.01675L2.59304 3.51493C6.73628 4.34523 10.0058 4.95412 13.1061 5.89512C16.1114 6.83073 19.0336 8.0063 21.8436 9.41005L21.6181 9.79753C18.8365 8.38248 15.9311 7.21538 12.937 6.31027C9.50311 5.35535 6.02255 4.57019 2.50849 3.95776H2.31119C3.97412 5.34159 7.4691 9.49308 6.34169 18.5433C5.96963 20.2349 5.96562 21.9845 6.3299 23.6777C6.69419 25.3708 7.41855 26.9693 8.45558 28.3685C10.7104 31.1362 14.5718 32.5754 20.2934 33.0736L20.3779 33.5164Z" fill="white"/>
<path d="M20.0115 33.378C18.1472 32.0301 16.6376 30.2646 15.6081 28.2283C14.5786 26.1921 14.059 23.9439 14.0926 21.6708C14.6563 14.3918 21.9845 7.19592 35.7953 0.24909L36.3872 0L36.2181 0.498179C34.926 4.44795 34.6452 8.64956 35.4007 12.7312C36.3872 15.8587 38.2192 23.8019 34.2733 28.7283C31.8775 31.7728 27.7625 33.2119 22.0127 33.2119V32.7691C27.6497 32.7691 31.5957 31.3023 33.9069 28.3685C37.7682 23.4421 35.9362 15.8034 34.9497 12.7589C34.1703 8.80723 34.4027 4.72731 35.6262 0.885652C22.2664 7.66642 15.1919 14.6686 14.6281 21.6985C14.6018 23.8905 15.0978 26.0582 16.0766 28.0284C17.0554 29.9987 18.4897 31.7169 20.2652 33.0459L20.0115 33.378Z" fill="white"/>
<path d="M47.9149 29.3095V27.2615H48.7605C49.2397 27.2615 49.4933 26.957 49.4933 26.5419V14.807H48.0559V12.5929H55.0458C57.1865 12.4702 59.2909 13.1756 60.9084 14.5579C61.6451 15.3332 62.2107 16.2498 62.5697 17.2499C62.9286 18.2501 63.0731 19.3124 62.9941 20.37C63.0247 21.7781 62.8151 23.1813 62.374 24.5215C62.0154 25.5635 61.4175 26.5104 60.6265 27.2891C59.142 28.6372 57.1798 29.3622 55.1586 29.3095H47.9149ZM52.6219 15.0284V26.9017H55.2149C55.8713 26.9316 56.5251 26.8035 57.1195 26.5286C57.714 26.2536 58.2309 25.8401 58.6253 25.3241C59.5484 24.0022 59.9858 22.4112 59.8655 20.8128C59.8655 16.9658 58.2026 15.0284 54.8767 15.0284H52.6219ZM78.6933 27.3168V29.3095H74.4091V27.6766C73.9423 28.3179 73.3172 28.8322 72.5925 29.1711C71.8677 29.51 71.0671 29.6624 70.2659 29.614C67.6446 29.614 66.3199 28.1748 66.3199 25.2964V19.3736C66.3199 18.9031 66.1226 18.6817 65.6717 18.654H64.8261V16.606H69.3076V24.6322C69.2725 25.327 69.4078 26.0198 69.7022 26.6526C69.8766 26.8962 70.1166 27.0873 70.3954 27.2046C70.6741 27.3219 70.9806 27.3608 71.2805 27.3168C71.6468 27.3412 72.0142 27.2897 72.3589 27.1657C72.7037 27.0418 73.018 26.8481 73.2817 26.5972C73.7256 26.1422 73.9773 25.539 73.9863 24.909V19.5397C74.001 19.3364 73.9518 19.1335 73.8454 18.9585C73.7716 18.8876 73.6829 18.8335 73.5855 18.8001C73.4881 18.7666 73.3844 18.7545 73.2817 18.7647H72.4643V16.606H76.974V26.5142C76.974 26.791 76.974 26.957 76.974 27.0401C77.0412 27.1038 77.1207 27.1537 77.2078 27.187C77.2949 27.2202 77.3879 27.2361 77.4813 27.2338L78.6933 27.3168ZM79.877 22.9716C79.8563 21.867 80.0475 20.7685 80.4407 19.7334C80.6823 18.9428 81.1291 18.2275 81.7373 17.6577C82.8842 16.7646 84.304 16.2771 85.7678 16.2738C86.6588 16.2515 87.544 16.4216 88.3608 16.772C88.9728 17.0471 89.5272 17.432 89.9955 17.9068C90.4717 18.4463 90.827 19.078 91.0384 19.7611C91.3251 20.6564 91.4677 21.5902 91.4612 22.5288C91.5959 24.4332 90.9804 26.3158 89.7419 27.7873C89.1877 28.3755 88.51 28.8385 87.7557 29.1443C87.0014 29.4501 86.1885 29.5915 85.3732 29.5586C84.5935 29.6019 83.8139 29.4727 83.0919 29.1805C82.3699 28.8883 81.7239 28.4405 81.2017 27.8703C80.0874 26.4396 79.5459 24.6573 79.6797 22.8609M84.1048 26.957C84.5265 27.2428 85.0303 27.3883 85.5423 27.3722C87.4025 27.3722 88.3608 25.8776 88.3608 22.9439C88.4302 21.777 88.2177 20.6106 87.7407 19.5397C87.545 19.1684 87.2438 18.861 86.8735 18.6546C86.5033 18.4483 86.08 18.3519 85.655 18.3773C85.2254 18.3534 84.7971 18.4436 84.4152 18.6384C84.0333 18.8332 83.7119 19.1254 83.4848 19.4843C82.9889 20.4125 82.7553 21.4542 82.8083 22.5011C82.8083 24.8813 83.2311 26.3481 84.133 26.957M93.4342 18.654V16.606H97.7465V18.2389C98.1983 17.6172 98.7983 17.1135 99.494 16.772C100.237 16.4044 101.058 16.2148 101.89 16.2185C102.438 16.1918 102.987 16.2763 103.501 16.4668C104.015 16.6572 104.483 16.9496 104.877 17.3256C105.643 18.2403 106.017 19.4112 105.92 20.5914V27.2061H107.386V29.2265H101.467V27.3998H102.284C102.492 27.388 102.69 27.3103 102.848 27.1784C102.926 27.0987 102.985 27.0023 103.019 26.8967C103.054 26.7911 103.062 26.6791 103.045 26.5695V21.311C103.045 20.6263 102.849 19.9554 102.482 19.3736C102.292 19.1323 102.041 18.9439 101.754 18.8274C101.468 18.7108 101.155 18.6701 100.847 18.7094C100.498 18.6791 100.146 18.7228 99.8152 18.8373C99.4846 18.9519 99.1828 19.1348 98.9303 19.3736C98.4541 19.855 98.1908 20.5016 98.1975 21.1726V27.2061H99.6631V29.2265H93.5751V27.3998H94.4206C94.628 27.388 94.8258 27.3103 94.9843 27.1784C95.1201 27.0052 95.1809 26.7865 95.1534 26.5695V19.5397C95.1534 19.0138 94.9562 18.7647 94.5334 18.7371L93.4342 18.654ZM115.982 16.2462C117.537 16.2724 119.074 16.5724 120.52 17.1318V26.5142C120.504 26.7089 120.553 26.9035 120.661 27.0677C120.728 27.1308 120.808 27.1785 120.896 27.2072C120.983 27.236 121.077 27.245 121.168 27.2338H121.986V29.2542H118.04V27.7873C117.667 28.3601 117.149 28.8273 116.536 29.1429C115.923 29.4584 115.237 29.6112 114.545 29.5863C113.814 29.645 113.08 29.5268 112.407 29.2421C111.734 28.9574 111.142 28.5149 110.684 27.9534C109.768 26.6557 109.304 25.1027 109.359 23.5251C109.242 21.6018 109.843 19.7026 111.05 18.1835C111.694 17.5182 112.481 17.0018 113.354 16.6715C114.226 16.3412 115.163 16.2054 116.095 16.2738M117.673 25.2964V18.7924C117.048 18.5432 116.375 18.4299 115.701 18.4603C115.202 18.4506 114.71 18.5711 114.274 18.8093C113.838 19.0476 113.474 19.3951 113.22 19.8165C112.666 20.9349 112.404 22.1716 112.459 23.4144C112.459 26.1821 113.361 27.4829 115.278 27.4829C115.953 27.5044 116.611 27.266 117.11 26.8186C117.331 26.629 117.508 26.395 117.63 26.1325C117.752 25.8699 117.814 25.5848 117.814 25.2964M126.016 14.0044H127.679V16.606H131.061L130.808 18.7094H127.538V25.3795C127.489 25.925 127.628 26.471 127.933 26.9293C128.1 27.0873 128.3 27.2085 128.519 27.2849C128.737 27.3613 128.97 27.391 129.201 27.3722C129.815 27.3695 130.414 27.1863 130.921 26.8463L131.71 28.7837C130.743 29.3863 129.613 29.6855 128.468 29.6417C127.808 29.6655 127.15 29.5717 126.524 29.3649C126.093 29.2248 125.692 29.0091 125.34 28.7283C125.06 28.4397 124.857 28.088 124.748 27.7043C124.64 27.3518 124.565 26.9906 124.522 26.6249C124.522 26.3758 124.522 25.9883 124.522 25.4902V18.7647H122.719L122.972 16.9381C123.316 16.9349 123.655 16.859 123.966 16.7158C124.278 16.5725 124.554 16.3652 124.776 16.1078C125.265 15.471 125.646 14.7606 125.904 14.0044M146.225 27.3168V29.3095H142.054V27.6766C141.587 28.3179 140.962 28.8322 140.237 29.1711C139.512 29.51 138.712 29.6624 137.91 29.614C135.289 29.614 133.965 28.1748 133.965 25.2964V19.3736C133.982 19.2826 133.978 19.1888 133.953 19.0995C133.928 19.0102 133.882 18.9277 133.819 18.8583C133.757 18.7889 133.679 18.7344 133.592 18.699C133.505 18.6636 133.41 18.6482 133.316 18.654H132.471V16.606H136.98V24.6322C136.939 25.3246 137.064 26.0169 137.347 26.6526C137.523 26.8938 137.764 27.0832 138.042 27.2002C138.32 27.3173 138.625 27.3576 138.925 27.3168C139.291 27.3394 139.658 27.2872 140.003 27.1633C140.347 27.0394 140.662 26.8467 140.926 26.5972C141.37 26.1422 141.622 25.539 141.631 24.909V19.5397C141.654 19.3317 141.593 19.1232 141.462 18.9585C141.391 18.8913 141.307 18.8394 141.215 18.806C141.123 18.7726 141.024 18.7586 140.926 18.7647H140.109V16.606H144.59V26.5142C144.526 26.6837 144.526 26.8706 144.59 27.0401C144.658 27.1038 144.737 27.1537 144.824 27.187C144.911 27.2202 145.004 27.2361 145.098 27.2338L146.225 27.3168ZM149.833 26.4865V19.5397C149.904 19.3523 149.904 19.1459 149.833 18.9585C149.704 18.8365 149.533 18.7672 149.354 18.7647H148.254V16.606H152.595V18.5433C152.893 17.8833 153.383 17.3247 154.004 16.9381C154.667 16.4916 155.455 16.2594 156.259 16.2738C157.089 16.2828 157.908 16.4718 158.655 16.8274V20.5914L156.287 20.7575V19.595C156.287 19.2629 156.287 19.0692 156.034 18.9862C155.811 18.8926 155.571 18.8455 155.329 18.8478C155.015 18.8407 154.703 18.9015 154.416 19.0258C154.129 19.1502 153.873 19.3351 153.666 19.5674C153.233 20.0799 153.003 20.7284 153.018 21.394V27.2061H155.244V29.1988H148.226V27.3998H149.072C149.279 27.388 149.477 27.3103 149.636 27.1784C149.771 27.0052 149.832 26.7865 149.805 26.5695M166.716 16.3569C167.811 16.3106 168.889 16.6436 169.76 17.2979C170.134 17.6153 170.429 18.0119 170.625 18.4577C170.82 18.9035 170.91 19.387 170.887 19.8718C170.901 20.5509 170.725 21.2207 170.38 21.8092C170.095 22.3355 169.69 22.7902 169.196 23.1376C168.655 23.4771 168.066 23.7381 167.449 23.9126C166.193 24.261 164.892 24.4288 163.587 24.4108C163.606 25.2048 163.905 25.9677 164.433 26.5695C164.75 26.8563 165.124 27.0755 165.531 27.2137C165.939 27.3518 166.371 27.4057 166.8 27.3722C167.946 27.3444 169.053 26.9563 169.957 26.2651L170.915 28.3132C170.401 28.7136 169.819 29.0227 169.196 29.2265C168.299 29.5716 167.34 29.7317 166.378 29.697C165.536 29.7694 164.689 29.6553 163.899 29.3631C163.109 29.0709 162.395 28.608 161.812 28.0087C160.779 26.6774 160.26 25.0303 160.346 23.3591C160.289 21.5585 160.878 19.7955 162.009 18.3773C162.569 17.7063 163.281 17.1738 164.089 16.8229C164.897 16.4719 165.777 16.3123 166.659 16.3569M163.475 22.1413C164.197 22.1928 164.922 22.1928 165.645 22.1413C166.264 22.0244 166.85 21.779 167.364 21.4217C167.601 21.2784 167.797 21.0792 167.935 20.8423C168.072 20.6054 168.148 20.3383 168.153 20.0655C168.186 19.8607 168.17 19.6512 168.105 19.4538C168.041 19.2564 167.93 19.0765 167.782 18.9285C167.634 18.7806 167.453 18.6687 167.253 18.6018C167.053 18.5349 166.84 18.5149 166.631 18.5433C166.198 18.5231 165.767 18.6147 165.382 18.8089C164.996 19.0032 164.669 19.2933 164.433 19.6504C163.9 20.3856 163.57 21.2437 163.475 22.1413Z" fill="white"/>
</g>
<defs>
<clipPath id="clip0_1_40">
<rect width="171" height="38" fill="white"/>
</clipPath>
</defs>
</svg>
